<svg width="6" height="10" viewBox="0 0 6 10" fill="none" xmlns="http://www.w3.org/2000/svg">
<path d="M1.94892 7.04301C1.94892 6.44713 2.02285 5.97222 2.1707 5.61828C2.31855 5.26434 2.60977 4.87679 3.04435 4.45565C3.48342 4.03002 3.7612 3.7276 3.87769 3.54839C4.0569 3.27509 4.14651 2.97939 4.14651 2.66129C4.14651 2.24014 4.04122 1.9198 3.83064 1.70027C3.62455 1.47625 3.31989 1.36425 2.91667 1.36425C2.53136 1.36425 2.21998 1.47401 1.98253 1.69355C1.74955 1.9086 1.63306 2.20206 1.63306 2.57392H0C0.00896057 1.78091 0.277778 1.15367 0.806452 0.692204C1.33961 0.230735 2.04301 0 2.91667 0C3.8172 0 4.51837 0.228495 5.02016 0.685484C5.52643 1.14247 5.77957 1.78091 5.77957 2.60081C5.77957 3.33109 5.43907 4.05018 4.75806 4.75806L3.93145 5.57124C3.63575 5.90726 3.48342 6.39785 3.47446 7.04301H1.94892ZM1.83468 9.13306C1.83468 8.86873 1.91756 8.65591 2.08333 8.49462C2.2491 8.32885 2.47312 8.24597 2.75538 8.24597C3.04211 8.24597 3.26837 8.33109 3.43414 8.50134C3.59991 8.66712 3.6828 8.87769 3.6828 9.13306C3.6828 9.37948 3.60215 9.58557 3.44086 9.75134C3.27957 9.91712 3.05108 10 2.75538 10C2.45968 10 2.23118 9.91712 2.06989 9.75134C1.91308 9.58557 1.83468 9.37948 1.83468 9.13306Z" fill="#198CFF"/>
</svg>
