<svg width="106" height="15" viewBox="0 0 106 15" fill="none" xmlns="http://www.w3.org/2000/svg">
<path d="M9.81906 4.98009C9.81906 5.58009 9.65906 6.10009 9.33906 6.54009C9.0324 6.98009 8.56573 7.33342 7.93906 7.60009C8.7124 7.85342 9.2924 8.23342 9.67906 8.74009C10.0657 9.24676 10.2591 9.84675 10.2591 10.5401C10.2591 11.8068 9.79906 12.7468 8.87906 13.3601C7.95906 13.9734 6.62573 14.2801 4.87906 14.2801C4.62573 14.2801 4.3524 14.2734 4.05906 14.2601C3.77906 14.2468 3.4924 14.2201 3.19906 14.1801C2.90573 14.1534 2.6124 14.1068 2.31906 14.0401C2.02573 13.9868 1.7524 13.9201 1.49906 13.8401C0.859062 13.6268 0.539062 13.2334 0.539062 12.6601V2.88009C0.539062 2.62675 0.605729 2.43342 0.739062 2.30009C0.872396 2.16675 1.05906 2.06009 1.29906 1.98009C1.7524 1.83342 2.27906 1.73342 2.87906 1.68009C3.47906 1.61342 4.10573 1.58009 4.75906 1.58009C6.3724 1.58009 7.61906 1.86009 8.49906 2.42009C9.37906 2.96675 9.81906 3.82009 9.81906 4.98009ZM7.61906 10.4401C7.61906 9.90676 7.42573 9.48676 7.03906 9.18009C6.66573 8.87342 6.11906 8.72009 5.39906 8.72009H3.05906V12.0601C3.3124 12.1268 3.6124 12.1734 3.95906 12.2001C4.31906 12.2268 4.6724 12.2401 5.01906 12.2401C5.8324 12.2401 6.46573 12.1001 6.91906 11.8201C7.38573 11.5268 7.61906 11.0668 7.61906 10.4401ZM3.05906 6.82009H5.07906C5.79906 6.82009 6.3324 6.67342 6.67906 6.38009C7.03906 6.08676 7.21906 5.68009 7.21906 5.16009C7.21906 4.10676 6.40573 3.58009 4.77906 3.58009C4.44573 3.58009 4.12573 3.59342 3.81906 3.62009C3.52573 3.64675 3.2724 3.68009 3.05906 3.72009V6.82009Z" fill="#222222"/>
<path d="M21.728 9.26009C21.728 10.0334 21.608 10.7334 21.368 11.3601C21.1413 11.9734 20.8146 12.5001 20.388 12.9401C19.9613 13.3801 19.448 13.7201 18.848 13.9601C18.248 14.1868 17.5746 14.3001 16.828 14.3001C16.0813 14.3001 15.408 14.1868 14.808 13.9601C14.208 13.7201 13.6946 13.3868 13.268 12.9601C12.8413 12.5201 12.508 11.9934 12.268 11.3801C12.0413 10.7534 11.928 10.0468 11.928 9.26009C11.928 8.48676 12.0413 7.79342 12.268 7.18009C12.508 6.55342 12.8413 6.02675 13.268 5.60009C13.708 5.16009 14.228 4.82676 14.828 4.60009C15.428 4.36009 16.0946 4.24009 16.828 4.24009C17.5613 4.24009 18.228 4.36009 18.828 4.60009C19.428 4.82676 19.9413 5.16009 20.368 5.60009C20.808 6.04009 21.1413 6.57342 21.368 7.20009C21.608 7.81342 21.728 8.50009 21.728 9.26009ZM16.828 6.24009C16.108 6.24009 15.5413 6.50676 15.128 7.04009C14.7146 7.56009 14.508 8.30009 14.508 9.26009C14.508 10.2334 14.708 10.9801 15.108 11.5001C15.5213 12.0201 16.0946 12.2801 16.828 12.2801C17.5613 12.2801 18.128 12.0201 18.528 11.5001C18.9413 10.9668 19.148 10.2201 19.148 9.26009C19.148 8.30009 18.9413 7.56009 18.528 7.04009C18.1146 6.50676 17.548 6.24009 16.828 6.24009Z" fill="#222222"/>
<path d="M26.3342 13.9801C26.2142 14.0068 26.0542 14.0401 25.8542 14.0801C25.6542 14.1201 25.4276 14.1401 25.1742 14.1401C24.7076 14.1401 24.3609 14.0534 24.1342 13.8801C23.9076 13.7068 23.7942 13.4001 23.7942 12.9601V6.62009C23.7942 6.27342 23.8742 5.98009 24.0342 5.74009C24.1942 5.50009 24.4276 5.28675 24.7342 5.10009C25.1476 4.84676 25.6542 4.64009 26.2542 4.48009C26.8675 4.32009 27.5276 4.24009 28.2342 4.24009C29.5009 4.24009 30.1342 4.63342 30.1342 5.42009C30.1342 5.60676 30.1009 5.78676 30.0342 5.96009C29.9809 6.12009 29.9209 6.25342 29.8542 6.36009C29.5476 6.29342 29.1676 6.26009 28.7142 6.26009C28.2476 6.26009 27.8076 6.31342 27.3942 6.42009C26.9809 6.52676 26.6276 6.66009 26.3342 6.82009V13.9801Z" fill="#222222"/>
<path d="M34.1272 13.9801C34.0072 14.0068 33.8472 14.0401 33.6472 14.0801C33.4472 14.1201 33.2205 14.1401 32.9672 14.1401C32.5005 14.1401 32.1539 14.0534 31.9272 13.8801C31.7005 13.7068 31.5872 13.4001 31.5872 12.9601V6.62009C31.5872 6.27342 31.6672 5.98009 31.8272 5.74009C31.9872 5.50009 32.2205 5.28675 32.5272 5.10009C32.9405 4.84676 33.4472 4.64009 34.0472 4.48009C34.6605 4.32009 35.3205 4.24009 36.0272 4.24009C37.2939 4.24009 37.9272 4.63342 37.9272 5.42009C37.9272 5.60676 37.8939 5.78676 37.8272 5.96009C37.7739 6.12009 37.7139 6.25342 37.6472 6.36009C37.3405 6.29342 36.9605 6.26009 36.5072 6.26009C36.0405 6.26009 35.6005 6.31342 35.1872 6.42009C34.7739 6.52676 34.4205 6.66009 34.1272 6.82009V13.9801Z" fill="#222222"/>
<path d="M48.5834 9.26009C48.5834 10.0334 48.4634 10.7334 48.2234 11.3601C47.9968 11.9734 47.6701 12.5001 47.2434 12.9401C46.8168 13.3801 46.3034 13.7201 45.7034 13.9601C45.1034 14.1868 44.4301 14.3001 43.6834 14.3001C42.9368 14.3001 42.2634 14.1868 41.6634 13.9601C41.0634 13.7201 40.5501 13.3868 40.1234 12.9601C39.6968 12.5201 39.3634 11.9934 39.1234 11.3801C38.8968 10.7534 38.7834 10.0468 38.7834 9.26009C38.7834 8.48676 38.8968 7.79342 39.1234 7.18009C39.3634 6.55342 39.6968 6.02675 40.1234 5.60009C40.5634 5.16009 41.0834 4.82676 41.6834 4.60009C42.2834 4.36009 42.9501 4.24009 43.6834 4.24009C44.4168 4.24009 45.0834 4.36009 45.6834 4.60009C46.2834 4.82676 46.7968 5.16009 47.2234 5.60009C47.6634 6.04009 47.9968 6.57342 48.2234 7.20009C48.4634 7.81342 48.5834 8.50009 48.5834 9.26009ZM43.6834 6.24009C42.9634 6.24009 42.3968 6.50676 41.9834 7.04009C41.5701 7.56009 41.3634 8.30009 41.3634 9.26009C41.3634 10.2334 41.5634 10.9801 41.9634 11.5001C42.3768 12.0201 42.9501 12.2801 43.6834 12.2801C44.4168 12.2801 44.9834 12.0201 45.3834 11.5001C45.7968 10.9668 46.0034 10.2201 46.0034 9.26009C46.0034 8.30009 45.7968 7.56009 45.3834 7.04009C44.9701 6.50676 44.4034 6.24009 43.6834 6.24009Z" fill="#222222"/>
<path d="M56.9525 7.86009C56.8058 8.40675 56.6458 8.96009 56.4725 9.52009C56.3125 10.0801 56.1458 10.6268 55.9725 11.1601C55.8125 11.6801 55.6525 12.1668 55.4925 12.6201C55.3458 13.0734 55.2192 13.4601 55.1125 13.7801C54.9658 13.8868 54.7792 13.9734 54.5525 14.0401C54.3258 14.1201 54.0392 14.1601 53.6925 14.1601C53.3058 14.1601 52.9658 14.1068 52.6725 14.0001C52.3925 13.8801 52.1992 13.7068 52.0925 13.4801C51.9325 13.1601 51.7525 12.6534 51.5525 11.9601C51.3525 11.2534 51.1458 10.4868 50.9325 9.66009C50.7192 8.82009 50.5192 7.97342 50.3325 7.12009C50.1592 6.25342 50.0125 5.50009 49.8925 4.86009C50.0258 4.72676 50.2058 4.60676 50.4325 4.50009C50.6725 4.38009 50.9325 4.32009 51.2125 4.32009C51.5858 4.32009 51.8792 4.41342 52.0925 4.60009C52.3058 4.77342 52.4458 5.06009 52.5125 5.46009C52.7658 7.06009 53.0058 8.42009 53.2325 9.54009C53.4592 10.6468 53.6192 11.4001 53.7125 11.8001H53.7925C53.8458 11.5734 53.9325 11.2401 54.0525 10.8001C54.1858 10.3601 54.3325 9.85342 54.4925 9.28009C54.6658 8.70675 54.8458 8.09342 55.0325 7.44009C55.2325 6.78676 55.4325 6.12676 55.6325 5.46009C55.8192 5.35342 56.0125 5.27342 56.2125 5.22009C56.4258 5.15342 56.6725 5.12009 56.9525 5.12009C57.3125 5.12009 57.6125 5.18009 57.8525 5.30009C58.1058 5.42009 58.2725 5.60009 58.3525 5.84009C58.5525 6.48009 58.7392 7.10675 58.9125 7.72009C59.0992 8.33342 59.2658 8.90676 59.4125 9.44009C59.5592 9.96009 59.6858 10.4268 59.7925 10.8401C59.9125 11.2534 60.0058 11.5734 60.0725 11.8001H60.1725C60.3992 10.6934 60.6325 9.54009 60.8725 8.34009C61.1258 7.14009 61.3392 5.90009 61.5125 4.62009C61.6725 4.52676 61.8525 4.45342 62.0525 4.40009C62.2525 4.34675 62.4525 4.32009 62.6525 4.32009C62.9992 4.32009 63.2792 4.40009 63.4925 4.56009C63.7192 4.72009 63.8325 4.98009 63.8325 5.34009C63.8325 5.52675 63.7925 5.83342 63.7125 6.26009C63.6325 6.67342 63.5258 7.15342 63.3925 7.70009C63.2725 8.23342 63.1325 8.80676 62.9725 9.42009C62.8258 10.0201 62.6725 10.6068 62.5125 11.1801C62.3525 11.7401 62.1992 12.2534 62.0525 12.7201C61.9058 13.1734 61.7792 13.5268 61.6725 13.7801C61.5392 13.8868 61.3325 13.9734 61.0525 14.0401C60.7858 14.1201 60.4925 14.1601 60.1725 14.1601C59.3325 14.1601 58.8325 13.9534 58.6725 13.5401C58.5658 13.2468 58.4392 12.8868 58.2925 12.4601C58.1458 12.0334 57.9925 11.5668 57.8325 11.0601C57.6858 10.5534 57.5325 10.0268 57.3725 9.48009C57.2258 8.93342 57.0858 8.39342 56.9525 7.86009Z" fill="#222222"/>
<path d="M67.4073 14.0401C66.9807 14.0401 66.6407 13.9134 66.3873 13.6601C66.1473 13.4068 66.0273 13.0668 66.0273 12.6401V1.86009C66.134 1.83342 66.3007 1.80009 66.5273 1.76009C66.7673 1.72009 67.0007 1.70009 67.2273 1.70009C67.7073 1.70009 68.0607 1.78676 68.2873 1.96009C68.514 2.13342 68.6273 2.45342 68.6273 2.92009V11.9001H73.7673C73.834 12.0068 73.9007 12.1534 73.9673 12.3401C74.034 12.5134 74.0673 12.7068 74.0673 12.9201C74.0673 13.2801 73.9807 13.5601 73.8073 13.7601C73.6473 13.9468 73.4207 14.0401 73.1273 14.0401H67.4073Z" fill="#222222"/>
<path d="M79.6241 12.3801C80.0107 12.3801 80.3641 12.3468 80.6841 12.2801C81.0041 12.2001 81.2374 12.1068 81.3841 12.0001V9.78009L79.4441 9.96009C78.9107 10.0134 78.5041 10.1334 78.2241 10.3201C77.9441 10.4934 77.8041 10.7734 77.8041 11.1601C77.8041 11.5468 77.9441 11.8468 78.2241 12.0601C78.5174 12.2734 78.9841 12.3801 79.6241 12.3801ZM79.5441 4.24009C80.8507 4.24009 81.8907 4.52009 82.6641 5.08009C83.4507 5.64009 83.8441 6.50675 83.8441 7.68009V12.3001C83.8441 12.6201 83.7641 12.8734 83.6041 13.0601C83.4441 13.2468 83.2441 13.4134 83.0041 13.5601C82.6307 13.7868 82.1574 13.9668 81.5841 14.1001C81.0107 14.2334 80.3574 14.3001 79.6241 14.3001C78.2907 14.3001 77.2374 14.0468 76.4641 13.5401C75.7041 13.0201 75.3241 12.2468 75.3241 11.2201C75.3241 10.3268 75.6041 9.64676 76.1641 9.18009C76.7374 8.70009 77.5641 8.40675 78.6441 8.30009L81.3841 8.02009V7.66009C81.3841 7.15342 81.1974 6.78009 80.8241 6.54009C80.4641 6.30009 79.9507 6.18009 79.2841 6.18009C78.7641 6.18009 78.2574 6.24676 77.7641 6.38009C77.2707 6.50009 76.8307 6.65342 76.4441 6.84009C76.2974 6.73342 76.1707 6.59342 76.0641 6.42009C75.9707 6.23342 75.9241 6.03342 75.9241 5.82009C75.9241 5.55342 75.9841 5.34009 76.1041 5.18009C76.2374 5.00675 76.4441 4.85342 76.7241 4.72009C77.1107 4.56009 77.5507 4.44009 78.0441 4.36009C78.5374 4.28009 79.0374 4.24009 79.5441 4.24009Z" fill="#222222"/>
<path d="M91.1133 4.24009C91.7533 4.24009 92.3466 4.34675 92.8933 4.56009C93.4533 4.76009 93.9399 5.07342 94.3533 5.50009C94.7666 5.91342 95.0866 6.43342 95.3133 7.06009C95.5533 7.67342 95.6733 8.40009 95.6733 9.24009C95.6733 10.0801 95.5533 10.8134 95.3133 11.4401C95.0733 12.0668 94.7333 12.5934 94.2933 13.0201C93.8533 13.4468 93.3199 13.7668 92.6933 13.9801C92.0799 14.1934 91.3933 14.3001 90.6333 14.3001C89.8599 14.3001 89.1866 14.2068 88.6133 14.0201C88.0399 13.8334 87.5666 13.6134 87.1933 13.3601C86.9133 13.1734 86.7066 12.9734 86.5733 12.7601C86.4399 12.5334 86.3733 12.2668 86.3733 11.9601V1.00009C86.4799 0.960087 86.6333 0.926755 86.8333 0.900088C87.0466 0.860088 87.2799 0.840088 87.5333 0.840088C87.9999 0.840088 88.3466 0.926755 88.5733 1.10009C88.7999 1.27342 88.9133 1.58009 88.9133 2.02009V4.76009C89.1933 4.61342 89.5133 4.49342 89.8733 4.40009C90.2466 4.29342 90.66 4.24009 91.1133 4.24009ZM90.6733 6.24009C90.3133 6.24009 89.9799 6.30009 89.6733 6.42009C89.3799 6.54009 89.1199 6.67342 88.8933 6.82009V11.8201C89.0666 11.9268 89.2999 12.0334 89.5933 12.1401C89.8866 12.2334 90.2266 12.2801 90.6133 12.2801C91.3599 12.2801 91.96 12.0334 92.4133 11.5401C92.8666 11.0334 93.0933 10.2668 93.0933 9.24009C93.0933 8.20009 92.8666 7.44009 92.4133 6.96009C91.9733 6.48009 91.3933 6.24009 90.6733 6.24009Z" fill="#222222"/>
<path d="M105.12 11.3201C105.12 12.2534 104.773 12.9868 104.08 13.5201C103.386 14.0401 102.373 14.3001 101.04 14.3001C100.493 14.3001 99.9929 14.2601 99.5395 14.1801C99.0995 14.1001 98.7129 13.9868 98.3795 13.8401C98.0595 13.6801 97.8062 13.4934 97.6195 13.2801C97.4462 13.0534 97.3595 12.8068 97.3595 12.5401C97.3595 12.2868 97.4129 12.0668 97.5195 11.8801C97.6395 11.6934 97.7929 11.5401 97.9795 11.4201C98.3529 11.6601 98.7795 11.8734 99.2595 12.0601C99.7529 12.2468 100.32 12.3401 100.96 12.3401C101.506 12.3401 101.92 12.2534 102.2 12.0801C102.48 11.8934 102.62 11.6401 102.62 11.3201C102.62 10.7734 102.22 10.4134 101.42 10.2401L100.3 9.98009C99.3129 9.75342 98.5795 9.41342 98.0995 8.96009C97.6329 8.50676 97.3995 7.90009 97.3995 7.14009C97.3995 6.27342 97.7462 5.57342 98.4395 5.04009C99.1329 4.49342 100.106 4.22009 101.36 4.22009C101.84 4.22009 102.28 4.26009 102.68 4.34009C103.093 4.40676 103.446 4.51342 103.74 4.66009C104.046 4.79342 104.28 4.96009 104.44 5.16009C104.613 5.34676 104.7 5.56675 104.7 5.82009C104.7 6.06009 104.646 6.27342 104.54 6.46009C104.433 6.63342 104.306 6.77342 104.16 6.88009C104.04 6.80009 103.88 6.72009 103.68 6.64009C103.493 6.56009 103.28 6.48676 103.04 6.42009C102.813 6.35342 102.566 6.30009 102.3 6.26009C102.046 6.20675 101.793 6.18009 101.54 6.18009C101.02 6.18009 100.613 6.26675 100.32 6.44009C100.026 6.60009 99.8795 6.83342 99.8795 7.14009C99.8795 7.36676 99.9595 7.55342 100.12 7.70009C100.293 7.84676 100.586 7.96675 101 8.06009L101.98 8.30009C103.086 8.55342 103.886 8.92676 104.38 9.42009C104.873 9.90009 105.12 10.5334 105.12 11.3201Z" fill="#222222"/>
</svg>
